<svg width="607" height="57" viewBox="0 0 607 57" fill="none" xmlns="http://www.w3.org/2000/svg">
<path d="M8.7766 9.52174V25.1576H49.0694V33.4891H8.7766V47.7554H54.3936V56.087H0V1.19021H54.409V9.52174H8.7766ZM79.0357 47.2989H122.075V56.087H70.2591V1.19021H79.0357V47.2989ZM144.983 9.52174V25.1576H185.276V33.4891H144.983V47.7554H190.6V56.087H136.191V1.19021H190.6V9.52174H144.983ZM202.768 29.462V27.538C202.768 13.0924 211.115 0 237.721 0C259.417 0 271.462 9.97825 272.245 20.9511H262.685C261.657 14.5435 252.006 9.14672 237.721 9.14672C219.048 9.14672 211.729 16.6467 211.729 27.538V29.462C211.729 40.3533 219.048 47.8533 237.721 47.8533C253.648 47.8533 260.706 42.6359 262.593 35.4946H272.153C270.434 47.1196 261.044 57 237.721 57C211.115 57 202.768 43.9076 202.768 29.462ZM320.731 29.462V27.538C320.731 13.0924 329.078 0 355.684 0C377.38 0 389.425 9.97825 390.208 20.9511H380.648C379.62 14.5435 369.969 9.14672 355.684 9.14672C337.011 9.14672 329.692 16.6467 329.692 27.538V29.462C329.692 40.3533 337.011 47.8533 355.684 47.8533C371.611 47.8533 378.669 42.6359 380.556 35.4946H390.116C388.397 47.1196 379.007 57 355.684 57C329.078 57 320.731 43.9076 320.731 29.462ZM416.722 47.2989H459.761V56.087H407.945V1.19021H416.722V47.2989ZM470.195 30.6522L470.624 1.38585H480.184V30.6522C480.184 40.3533 486.475 47.2011 502.141 47.2011C518.328 47.2011 524.097 40.7935 524.097 30.6522L524.527 1.38585H534.086V29.3804C534.086 43.288 529.176 57 502.156 57C475.534 57 470.195 43.9076 470.195 30.6522ZM552.253 1.19021H588.066C597.456 1.19021 605.88 5.29891 605.88 15.4565V16.1902C605.88 24.7826 601.323 26.9022 600.034 27.538C600.801 28.2717 607 29.2826 607 37.9565V39.3261C607 50.5761 597.364 56.0707 583.754 56.0707H552.253V1.19021ZM588.066 22.5163C594.357 22.5163 596.935 21.3261 596.935 16.2065V15.4728C596.935 12.6359 594.863 10.3532 588.066 10.3532H561.03V22.5163H588.066ZM583.754 46.9402C594.433 46.9402 598.039 42.3587 598.039 39.3424V37.9728C598.039 32.4946 593.39 32.2989 583.754 32.2989H561.03V46.9402H583.754Z" fill="url(#paint0_linear_5_1658)"/>
<defs>
<linearGradient id="paint0_linear_5_1658" x1="384.353" y1="114.072" x2="-83.2294" y2="-299.063" gradientUnits="userSpaceOnUse">
<stop stop-color="#00D2FF"/>
<stop offset="1" stop-color="#3A7BD5"/>
</linearGradient>
</defs>
</svg>
