<svg width="201" height="293" viewBox="0 0 201 293" fill="none" xmlns="http://www.w3.org/2000/svg">
<path d="M247.004 15.9858C256.53 20.1603 265.804 25.178 274.713 31.0789C277.76 33.1208 278.559 37.2614 276.441 40.2729C274.433 43.0536 270.559 43.8095 267.705 41.9167C259.414 36.4239 250.754 31.7002 241.882 27.8189C186.265 3.50691 120.852 10.8582 73.1461 49.3021C22.51 90.0859 1.30553 159.121 19.3312 222.763C20.267 226.062 18.3858 229.527 15.1281 230.615C11.6425 231.745 7.90959 229.715 6.93161 226.188C-12.4396 157.653 10.4602 83.2884 65.0782 39.3072C116.5 -2.29131 187.085 -10.2311 247.004 15.9858ZM54.9524 270.993C57.8173 256.532 48.4563 242.443 33.962 239.578C19.4677 236.712 5.42182 246.076 2.5576 260.575C-0.307292 275.035 9.05375 289.124 23.5481 291.989C38.0424 294.855 52.0875 285.453 54.9524 270.993Z" fill="#1CB5E0"/>
</svg>
