<svg width="174" height="271" viewBox="0 0 174 271" fill="none" xmlns="http://www.w3.org/2000/svg">
<path d="M-61.9844 261.876C-71.756 258.944 -81.3326 255.248 -90.6035 250.744C-93.776 249.182 -94.8458 245.59 -92.9336 242.765C-91.116 240.151 -87.3048 239.178 -84.3347 240.623C-75.7059 244.816 -66.7618 248.301 -57.6606 251.026C-0.612331 268.089 64.1076 256.427 109.12 218.719C156.9 178.714 173.472 116.097 151.296 61.3434C150.145 58.5047 151.791 55.2976 154.966 54.0797C158.366 52.8066 162.222 54.303 163.43 57.3396C187.271 116.306 169.361 183.762 117.824 226.904C69.3151 267.691 -0.52143 280.281 -61.9844 261.876ZM112.598 21.5858C110.699 34.5775 120.962 46.2739 135.6 47.6572C150.237 49.0404 163.62 39.6646 165.516 26.6393C167.416 13.6475 157.153 1.95112 142.515 0.567882C127.877 -0.815358 114.498 8.59405 112.598 21.5858Z" fill="#1CB5E0"/>
</svg>
