<svg width="1920" height="110" viewBox="0 0 1920 110" fill="none" xmlns="http://www.w3.org/2000/svg">
<path d="M0.541061 50.4946H-34.5839V0.741211L5.76525 0.741211V10.8825H-26.5042V20.5784H-2.31451V30.7196H-26.5042V40.4155H5.76525" fill="#1CB5E0"/>
<path d="M46.4114 10.81H26.2079C24.0126 10.81 22.164 13.12 22.164 15.8858V35.2775C22.164 38.1158 24.0044 40.3533 26.2079 40.3533H42.3757C44.637 40.3533 46.4196 38.1158 46.4196 35.2775H54.4994C54.4994 43.7096 49.0936 50.4946 42.3757 50.4946H26.2079C19.49 50.4946 14.0842 43.7096 14.0842 35.2775V15.8858C14.0842 7.53659 19.49 0.741211 26.2079 0.741211L54.4911 0.741211" fill="#1CB5E0"/>
<path d="M-22.4685 109.042C-29.1864 109.042 -34.5922 102.257 -34.5922 93.8978V59.2891H-26.5125V93.8978C-26.5125 96.6533 -24.7298 98.9737 -22.4685 98.9737H-6.36677C-4.17146 98.9737 -2.32281 96.6636 -2.32281 93.8978V59.2891H5.75695V93.8978C5.75695 102.247 0.293434 109.042 -6.36677 109.042H-22.4685Z" fill="#1CB5E0"/>
<path d="M15.2644 59.2891H40.9974C47.5338 59.2891 52.8818 66.0741 52.8818 74.2782C52.8818 77.0337 52.2876 79.7995 51.0413 82.3374C53.8969 85.1757 55.6135 89.4954 55.6135 94.1258C55.6135 102.33 50.2656 109.042 43.6714 109.042H15.2644V79.1365H40.9974C43.135 79.1365 44.8598 76.9715 44.8598 74.2886C44.8598 71.6057 43.135 69.4407 40.9974 69.4407H23.3442M47.5338 94.1258C47.5338 91.4428 45.8089 89.2778 43.6714 89.2778H23.3442V98.9737H43.6714C45.8089 98.9737 47.5338 96.7362 47.5338 94.1258Z" fill="#1CB5E0"/>
<path d="M843.23 50.4946H808.105V0.741211L848.454 0.741211V10.8825H816.185V20.5784H840.374V30.7196H816.185V40.4155H848.454" fill="#1CB5E0" fill-opacity="0.6"/>
<path d="M893.086 50.4946H857.961V0.741211H866.041V40.4258H898.31" fill="#1CB5E0" fill-opacity="0.6"/>
<path d="M942.646 50.4946H907.521V0.741211L947.87 0.741211V10.8825H915.601V20.5784H939.79V30.7196H915.601V40.4155H947.87" fill="#1CB5E0" fill-opacity="0.6"/>
<path d="M988.516 10.81H968.313C966.117 10.81 964.269 13.12 964.269 15.8858V35.2775C964.269 38.1158 966.109 40.3533 968.313 40.3533H984.48C986.742 40.3533 988.524 38.1158 988.524 35.2775H996.604C996.604 43.7096 991.198 50.4946 984.48 50.4946H968.313C961.595 50.4946 956.189 43.7096 956.189 35.2775V15.8858C956.189 7.53659 961.595 0.741211 968.313 0.741211L996.596 0.741211" fill="#1CB5E0" fill-opacity="0.6"/>
<path d="M841.34 69.451L821.136 69.2956C818.941 69.2749 817.084 71.5745 817.068 74.3403L816.969 93.7321C816.952 96.5704 818.784 98.8182 820.988 98.8389L837.156 98.9632C839.417 98.984 841.208 96.7568 841.224 93.9185L849.304 93.9807C849.263 102.413 843.824 109.156 837.106 109.105L820.938 108.98C814.22 108.928 808.848 102.102 808.889 93.6699L808.988 74.2782C809.029 65.929 814.468 59.1751 821.186 59.2269L849.469 59.4444" fill="#1CB5E0" fill-opacity="0.6"/>
<path d="M893.969 109.042H858.845V59.2891H866.924V98.9737H899.194" fill="#1CB5E0" fill-opacity="0.6"/>
<path d="M919.636 109.042C912.918 109.042 907.513 102.257 907.513 93.8978V59.2891H915.592V93.8978C915.592 96.6533 917.375 98.9737 919.636 98.9737H935.738C937.933 98.9737 939.782 96.6636 939.782 93.8978V59.2891H947.862V93.8978C947.862 102.247 942.398 109.042 935.738 109.042H919.636Z" fill="#1CB5E0" fill-opacity="0.6"/>
<path d="M957.369 59.2891H983.102C989.639 59.2891 994.987 66.0741 994.987 74.2782C994.987 77.0337 994.392 79.7995 993.146 82.3374C996.002 85.1757 997.718 89.4954 997.718 94.1258C997.718 102.33 992.37 109.042 985.776 109.042H957.369V79.1365H983.102C985.24 79.1365 986.965 76.9715 986.965 74.2886C986.965 71.6057 985.24 69.4407 983.102 69.4407H965.449M989.639 94.1258C989.639 91.4428 987.914 89.2778 985.776 89.2778H965.449V98.9737H985.776C987.914 98.9737 989.639 96.7362 989.639 94.1258Z" fill="#1CB5E0" fill-opacity="0.6"/>
<path d="M125.322 50.4956H90.197V0.742188L130.546 0.742187V10.8835H98.2768V20.5793H122.466V30.7206H98.2768V40.4164H130.546" fill="#1CB5E0" fill-opacity="0.9"/>
<path d="M175.179 50.4956H140.054V0.742188H148.133V40.4268H180.403" fill="#1CB5E0" fill-opacity="0.9"/>
<path d="M224.738 50.4956H189.613V0.742188L229.962 0.742187V10.8835H197.693V20.5793H221.882V30.7206H197.693V40.4164H229.962" fill="#1CB5E0" fill-opacity="0.9"/>
<path d="M270.608 10.811H250.405C248.21 10.811 246.361 13.121 246.361 15.8868V35.2785C246.361 38.1168 248.201 40.3543 250.405 40.3543H266.573C268.834 40.3543 270.617 38.1168 270.617 35.2785H278.696C278.696 43.7106 273.291 50.4956 266.573 50.4956H250.405C243.687 50.4956 238.281 43.7106 238.281 35.2785V15.8868C238.281 7.53756 243.687 0.742188 250.405 0.742188L278.688 0.742187" fill="#1CB5E0" fill-opacity="0.9"/>
<path d="M123.432 69.452L103.229 69.2966C101.033 69.2759 99.1763 71.5755 99.1598 74.3413L99.0608 93.733C99.0443 96.5714 100.876 98.8192 103.08 98.8399L119.248 98.9642C121.509 98.9849 123.3 96.7578 123.316 93.9195L131.396 93.9816C131.355 102.414 125.916 109.157 119.198 109.105L103.031 108.981C96.3125 108.929 90.9398 102.103 90.9811 93.6709L91.0801 74.2792C91.1214 65.93 96.5601 59.176 103.278 59.2278L131.561 59.4453" fill="#1CB5E0" fill-opacity="0.9"/>
<path d="M176.062 109.043H140.937V59.29H149.016V98.9746H181.286" fill="#1CB5E0" fill-opacity="0.9"/>
<path d="M201.729 109.043C195.011 109.043 189.605 102.258 189.605 93.8988V59.29H197.685V93.8988C197.685 96.6542 199.467 98.9746 201.729 98.9746H217.83C220.026 98.9746 221.874 96.6646 221.874 93.8988V59.29H229.954V93.8988C229.954 102.248 224.49 109.043 217.83 109.043H201.729Z" fill="#1CB5E0" fill-opacity="0.9"/>
<path d="M239.461 59.29H265.194C271.731 59.29 277.079 66.075 277.079 74.2792C277.079 77.0347 276.485 79.8005 275.238 82.3384C278.094 85.1767 279.811 89.4963 279.811 94.1267C279.811 102.331 274.463 109.043 267.868 109.043H239.461V79.1375H265.194C267.332 79.1375 269.057 76.9725 269.057 74.2896C269.057 71.6066 267.332 69.4417 265.194 69.4417H247.541M271.731 94.1267C271.731 91.4438 270.006 89.2788 267.868 89.2788H247.541V98.9746H267.868C270.006 98.9746 271.731 96.7372 271.731 94.1267Z" fill="#1CB5E0" fill-opacity="0.9"/>
<path d="M1067.43 50.4956H1032.3V0.742188L1072.65 0.742187V10.8835H1040.38V20.5793H1064.57V30.7206H1040.38V40.4164H1072.65" fill="#1CB5E0" fill-opacity="0.5"/>
<path d="M1117.28 50.4956H1082.16V0.742188H1090.24V40.4268H1122.51" fill="#1CB5E0" fill-opacity="0.5"/>
<path d="M1166.84 50.4956H1131.72V0.742188L1172.07 0.742187V10.8835H1139.8V20.5793H1163.99V30.7206H1139.8V40.4164H1172.07" fill="#1CB5E0" fill-opacity="0.5"/>
<path d="M1212.71 10.811H1192.51C1190.31 10.811 1188.47 13.121 1188.47 15.8868V35.2785C1188.47 38.1168 1190.31 40.3543 1192.51 40.3543H1208.68C1210.94 40.3543 1212.72 38.1168 1212.72 35.2785H1220.8C1220.8 43.7106 1215.4 50.4956 1208.68 50.4956H1192.51C1185.79 50.4956 1180.39 43.7106 1180.39 35.2785V15.8868C1180.39 7.53756 1185.79 0.742188 1192.51 0.742188L1220.79 0.742187" fill="#1CB5E0" fill-opacity="0.5"/>
<path d="M1065.54 69.452L1045.33 69.2966C1043.14 69.2759 1041.28 71.5755 1041.26 74.3413L1041.17 93.733C1041.15 96.5714 1042.98 98.8192 1045.19 98.8399L1061.35 98.9642C1063.61 98.9849 1065.41 96.7578 1065.42 93.9195L1073.5 93.9816C1073.46 102.414 1068.02 109.157 1061.3 109.105L1045.14 108.981C1038.42 108.929 1033.04 102.103 1033.09 93.6709L1033.19 74.2792C1033.23 65.93 1038.67 59.176 1045.38 59.2278L1073.67 59.4453" fill="#1CB5E0" fill-opacity="0.5"/>
<path d="M1118.17 109.043H1083.04V59.29H1091.12V98.9746H1123.39" fill="#1CB5E0" fill-opacity="0.5"/>
<path d="M1143.83 109.043C1137.12 109.043 1131.71 102.258 1131.71 93.8988V59.29H1139.79V93.8988C1139.79 96.6542 1141.57 98.9746 1143.83 98.9746H1159.94C1162.13 98.9746 1163.98 96.6646 1163.98 93.8988V59.29H1172.06V93.8988C1172.06 102.248 1166.6 109.043 1159.94 109.043H1143.83Z" fill="#1CB5E0" fill-opacity="0.5"/>
<path d="M1181.57 59.29H1207.3C1213.84 59.29 1219.18 66.075 1219.18 74.2792C1219.18 77.0347 1218.59 79.8005 1217.34 82.3384C1220.2 85.1767 1221.92 89.4963 1221.92 94.1267C1221.92 102.331 1216.57 109.043 1209.97 109.043H1181.57V79.1375H1207.3C1209.44 79.1375 1211.16 76.9725 1211.16 74.2896C1211.16 71.6066 1209.44 69.4417 1207.3 69.4417H1189.65M1213.84 94.1267C1213.84 91.4438 1212.11 89.2788 1209.97 89.2788H1189.65V98.9746H1209.97C1212.11 98.9746 1213.84 96.7372 1213.84 94.1267Z" fill="#1CB5E0" fill-opacity="0.5"/>
<path d="M592.797 50.4956H557.672V0.742188L598.021 0.742187V10.8835H565.752V20.5793H589.941V30.7206H565.752V40.4164H598.021" fill="#1CB5E0" fill-opacity="0.7"/>
<path d="M642.654 50.4956H607.529V0.742188H615.608V40.4268H647.878" fill="#1CB5E0" fill-opacity="0.7"/>
<path d="M692.213 50.4956H657.088V0.742188L697.437 0.742187V10.8835H665.168V20.5793H689.358V30.7206H665.168V40.4164H697.437" fill="#1CB5E0" fill-opacity="0.7"/>
<path d="M738.083 10.811H717.88C715.685 10.811 713.836 13.121 713.836 15.8868V35.2785C713.836 38.1168 715.676 40.3543 717.88 40.3543H734.048C736.309 40.3543 738.092 38.1168 738.092 35.2785H746.171C746.171 43.7106 740.766 50.4956 734.048 50.4956H717.88C711.162 50.4956 705.756 43.7106 705.756 35.2785V15.8868C705.756 7.53756 711.162 0.742188 717.88 0.742188L746.163 0.742187" fill="#1CB5E0" fill-opacity="0.7"/>
<path d="M590.907 69.452L570.704 69.2966C568.508 69.2759 566.651 71.5755 566.635 74.3413L566.536 93.733C566.519 96.5714 568.352 98.8192 570.555 98.8399L586.723 98.9642C588.984 98.9849 590.775 96.7578 590.792 93.9195L598.871 93.9816C598.83 102.414 593.391 109.157 586.673 109.105L570.506 108.981C563.788 108.929 558.415 102.103 558.456 93.6709L558.555 74.2792C558.596 65.93 564.035 59.176 570.753 59.2278L599.036 59.4453" fill="#1CB5E0" fill-opacity="0.7"/>
<path d="M643.537 109.043H608.412V59.29H616.491V98.9746H648.761" fill="#1CB5E0" fill-opacity="0.7"/>
<path d="M669.204 109.043C662.486 109.043 657.08 102.258 657.08 93.8988V59.29H665.16V93.8988C665.16 96.6542 666.942 98.9746 669.204 98.9746H685.305C687.501 98.9746 689.349 96.6646 689.349 93.8988V59.29H697.429V93.8988C697.429 102.248 691.966 109.043 685.305 109.043H669.204Z" fill="#1CB5E0" fill-opacity="0.7"/>
<path d="M706.936 59.29H732.67C739.206 59.29 744.554 66.075 744.554 74.2792C744.554 77.0347 743.96 79.8005 742.713 82.3384C745.569 85.1767 747.286 89.4963 747.286 94.1267C747.286 102.331 741.938 109.043 735.343 109.043H706.936V79.1375H732.67C734.807 79.1375 736.532 76.9725 736.532 74.2896C736.532 71.6066 734.807 69.4417 732.67 69.4417H715.016M739.206 94.1267C739.206 91.4438 737.481 89.2788 735.343 89.2788H715.016V98.9746H735.343C737.481 98.9746 739.206 96.7372 739.206 94.1267Z" fill="#1CB5E0" fill-opacity="0.7"/>
<g opacity="0.3">
<path d="M1534.9 50.4956H1499.78V0.742188L1540.13 0.742187V10.8835H1507.86V20.5793H1532.05V30.7206H1507.86V40.4164H1540.13" fill="#1CB5E0"/>
<path d="M1584.76 50.4956H1549.63V0.742188H1557.71V40.4268H1589.98" fill="#1CB5E0"/>
<path d="M1634.32 50.4956H1599.19V0.742188L1639.54 0.742187V10.8835H1607.27V20.5793H1631.46V30.7206H1607.27V40.4164H1639.54" fill="#1CB5E0"/>
<path d="M1680.19 10.811H1659.98C1657.79 10.811 1655.94 13.121 1655.94 15.8868V35.2785C1655.94 38.1168 1657.78 40.3543 1659.98 40.3543H1676.15C1678.41 40.3543 1680.2 38.1168 1680.2 35.2785H1688.28C1688.28 43.7106 1682.87 50.4956 1676.15 50.4956H1659.98C1653.27 50.4956 1647.86 43.7106 1647.86 35.2785V15.8868C1647.86 7.53756 1653.27 0.742188 1659.98 0.742188L1688.27 0.742187" fill="#1CB5E0"/>
<path d="M1533.01 69.452L1512.81 69.2966C1510.61 69.2759 1508.76 71.5755 1508.74 74.3413L1508.64 93.733C1508.62 96.5714 1510.46 98.8192 1512.66 98.8399L1528.83 98.9642C1531.09 98.9849 1532.88 96.7578 1532.9 93.9195L1540.98 93.9816C1540.93 102.414 1535.5 109.157 1528.78 109.105L1512.61 108.981C1505.89 108.929 1500.52 102.103 1500.56 93.6709L1500.66 74.2792C1500.7 65.93 1506.14 59.176 1512.86 59.2278L1541.14 59.4453" fill="#1CB5E0"/>
<path d="M1585.64 109.043H1550.52V59.29H1558.6V98.9746H1590.87" fill="#1CB5E0"/>
<path d="M1611.31 109.043C1604.59 109.043 1599.18 102.258 1599.18 93.8988V59.29H1607.26V93.8988C1607.26 96.6542 1609.05 98.9746 1611.31 98.9746H1627.41C1629.61 98.9746 1631.45 96.6646 1631.45 93.8988V59.29H1639.53V93.8988C1639.53 102.248 1634.07 109.043 1627.41 109.043H1611.31Z" fill="#1CB5E0"/>
<path d="M1649.04 59.29H1674.77C1681.31 59.29 1686.66 66.075 1686.66 74.2792C1686.66 77.0347 1686.06 79.8005 1684.82 82.3384C1687.67 85.1767 1689.39 89.4963 1689.39 94.1267C1689.39 102.331 1684.04 109.043 1677.45 109.043H1649.04V79.1375H1674.77C1676.91 79.1375 1678.64 76.9725 1678.64 74.2896C1678.64 71.6066 1676.91 69.4417 1674.77 69.4417H1657.12M1681.31 94.1267C1681.31 91.4438 1679.59 89.2788 1677.45 89.2788H1657.12V98.9746H1677.45C1679.59 98.9746 1681.31 96.7372 1681.31 94.1267Z" fill="#1CB5E0"/>
</g>
<path d="M361.444 50.4946H326.319V0.741211L366.669 0.741211V10.8825H334.399V20.5784H358.589V30.7196H334.399V40.4155H366.669" fill="#1CB5E0" fill-opacity="0.8"/>
<path d="M411.301 50.4946H376.176V0.741211H384.256V40.4258H416.525" fill="#1CB5E0" fill-opacity="0.8"/>
<path d="M460.86 50.4946H425.736V0.741211L466.085 0.741211V10.8825H433.815V20.5784H458.005V30.7196H433.815V40.4155H466.085" fill="#1CB5E0" fill-opacity="0.8"/>
<path d="M506.731 10.81H486.527C484.332 10.81 482.483 13.12 482.483 15.8858V35.2775C482.483 38.1158 484.324 40.3533 486.527 40.3533H502.695C504.956 40.3533 506.739 38.1158 506.739 35.2775H514.819C514.819 43.7096 509.413 50.4946 502.695 50.4946H486.527C479.809 50.4946 474.404 43.7096 474.404 35.2775V15.8858C474.404 7.53659 479.809 0.741211 486.527 0.741211L514.811 0.741211" fill="#1CB5E0" fill-opacity="0.8"/>
<path d="M359.554 69.451L339.351 69.2956C337.156 69.2749 335.299 71.5745 335.282 74.3403L335.183 93.7321C335.167 96.5704 336.999 98.8182 339.202 98.8389L355.37 98.9632C357.631 98.984 359.422 96.7568 359.439 93.9185L367.519 93.9807C367.477 102.413 362.039 109.156 355.321 109.105L339.153 108.98C332.435 108.928 327.062 102.102 327.104 93.6699L327.203 74.2782C327.244 65.929 332.683 59.1751 339.401 59.2269L367.684 59.4444" fill="#1CB5E0" fill-opacity="0.8"/>
<path d="M412.184 109.042H377.059V59.2891H385.139V98.9737H417.408" fill="#1CB5E0" fill-opacity="0.8"/>
<path d="M437.851 109.042C431.133 109.042 425.727 102.257 425.727 93.8978V59.2891H433.807V93.8978C433.807 96.6533 435.59 98.9737 437.851 98.9737H453.953C456.148 98.9737 457.997 96.6636 457.997 93.8978V59.2891H466.076V93.8978C466.076 102.247 460.613 109.042 453.953 109.042H437.851Z" fill="#1CB5E0" fill-opacity="0.8"/>
<path d="M475.584 59.2891H501.317C507.853 59.2891 513.201 66.0741 513.201 74.2782C513.201 77.0337 512.607 79.7995 511.361 82.3374C514.216 85.1757 515.933 89.4954 515.933 94.1258C515.933 102.33 510.585 109.042 503.991 109.042H475.584V79.1365H501.317C503.454 79.1365 505.179 76.9715 505.179 74.2886C505.179 71.6057 503.454 69.4407 501.317 69.4407H483.664M507.853 94.1258C507.853 91.4428 506.128 89.2778 503.991 89.2778H483.664V98.9737H503.991C506.128 98.9737 507.853 96.7362 507.853 94.1258Z" fill="#1CB5E0" fill-opacity="0.8"/>
<g opacity="0.4">
<path d="M1303.55 50.4956H1268.42V0.742188L1308.77 0.742187V10.8835H1276.5V20.5793H1300.69V30.7206H1276.5V40.4164H1308.77" fill="#1CB5E0"/>
<path d="M1353.41 50.4956H1318.28V0.742188H1326.36V40.4268H1358.63" fill="#1CB5E0"/>
<path d="M1402.97 50.4956H1367.84V0.742188L1408.19 0.742187V10.8835H1375.92V20.5793H1400.11V30.7206H1375.92V40.4164H1408.19" fill="#1CB5E0"/>
<path d="M1448.84 10.811H1428.63C1426.44 10.811 1424.59 13.121 1424.59 15.8868V35.2785C1424.59 38.1168 1426.43 40.3543 1428.63 40.3543H1444.8C1447.06 40.3543 1448.84 38.1168 1448.84 35.2785H1456.92C1456.92 43.7106 1451.52 50.4956 1444.8 50.4956H1428.63C1421.91 50.4956 1416.51 43.7106 1416.51 35.2785V15.8868C1416.51 7.53756 1421.91 0.742188 1428.63 0.742188L1456.92 0.742187" fill="#1CB5E0"/>
<path d="M1301.66 69.452L1281.46 69.2966C1279.26 69.2759 1277.4 71.5755 1277.39 74.3413L1277.29 93.733C1277.27 96.5714 1279.1 98.8192 1281.31 98.8399L1297.48 98.9642C1299.74 98.9849 1301.53 96.7578 1301.54 93.9195L1309.62 93.9816C1309.58 102.414 1304.14 109.157 1297.43 109.105L1281.26 108.981C1274.54 108.929 1269.17 102.103 1269.21 93.6709L1269.31 74.2792C1269.35 65.93 1274.79 59.176 1281.51 59.2278L1309.79 59.4453" fill="#1CB5E0"/>
<path d="M1354.29 109.043H1319.16V59.29H1327.24V98.9746H1359.51" fill="#1CB5E0"/>
<path d="M1379.96 109.043C1373.24 109.043 1367.83 102.258 1367.83 93.8988V59.29H1375.91V93.8988C1375.91 96.6542 1377.69 98.9746 1379.96 98.9746H1396.06C1398.25 98.9746 1400.1 96.6646 1400.1 93.8988V59.29H1408.18V93.8988C1408.18 102.248 1402.72 109.043 1396.06 109.043H1379.96Z" fill="#1CB5E0"/>
<path d="M1417.69 59.29H1443.42C1449.96 59.29 1455.31 66.075 1455.31 74.2792C1455.31 77.0347 1454.71 79.8005 1453.47 82.3384C1456.32 85.1767 1458.04 89.4963 1458.04 94.1267C1458.04 102.331 1452.69 109.043 1446.1 109.043H1417.69V79.1375H1443.42C1445.56 79.1375 1447.28 76.9725 1447.28 74.2896C1447.28 71.6066 1445.56 69.4417 1443.42 69.4417H1425.77M1449.96 94.1267C1449.96 91.4438 1448.23 89.2788 1446.1 89.2788H1425.77V98.9746H1446.1C1448.23 98.9746 1449.96 96.7372 1449.96 94.1267Z" fill="#1CB5E0"/>
</g>
<g opacity="0.2">
<path d="M1792.49 50.4946H1757.36V0.741211L1797.71 0.741211V10.8825H1765.44V20.5784H1789.63V30.7196H1765.44V40.4155H1797.71" fill="#1CB5E0"/>
<path d="M1842.35 50.4946H1807.22V0.741211H1815.3V40.4258H1847.57" fill="#1CB5E0"/>
<path d="M1891.91 50.4946H1856.78V0.741211L1897.13 0.741211V10.8825H1864.86V20.5784H1889.05V30.7196H1864.86V40.4155H1897.13" fill="#1CB5E0"/>
<path d="M1937.78 10.81H1917.57C1915.38 10.81 1913.53 13.12 1913.53 15.8858V35.2775C1913.53 38.1158 1915.37 40.3533 1917.57 40.3533H1933.74C1936 40.3533 1937.78 38.1158 1937.78 35.2775H1945.86C1945.86 43.7096 1940.46 50.4946 1933.74 50.4946H1917.57C1910.85 50.4946 1905.45 43.7096 1905.45 35.2775V15.8858C1905.45 7.53659 1910.85 0.741211 1917.57 0.741211L1945.86 0.741211" fill="#1CB5E0"/>
<path d="M1790.6 69.451L1770.4 69.2956C1768.2 69.2749 1766.34 71.5745 1766.33 74.3403L1766.23 93.7321C1766.21 96.5704 1768.04 98.8182 1770.25 98.8389L1786.42 98.9632C1788.68 98.984 1790.47 96.7568 1790.48 93.9185L1798.56 93.9807C1798.52 102.413 1793.08 109.156 1786.37 109.105L1770.2 108.98C1763.48 108.928 1758.11 102.102 1758.15 93.6699L1758.25 74.2782C1758.29 65.929 1763.73 59.1751 1770.45 59.2269L1798.73 59.4444" fill="#1CB5E0"/>
<path d="M1843.23 109.042H1808.1V59.2891H1816.18V98.9737H1848.45" fill="#1CB5E0"/>
<path d="M1868.9 109.042C1862.18 109.042 1856.77 102.257 1856.77 93.8978V59.2891H1864.85V93.8978C1864.85 96.6533 1866.64 98.9737 1868.9 98.9737H1885C1887.19 98.9737 1889.04 96.6636 1889.04 93.8978V59.2891H1897.12V93.8978C1897.12 102.247 1891.66 109.042 1885 109.042H1868.9Z" fill="#1CB5E0"/>
<path d="M1906.63 59.2891H1932.36C1938.9 59.2891 1944.25 66.0741 1944.25 74.2782C1944.25 77.0337 1943.65 79.7995 1942.41 82.3374C1945.26 85.1757 1946.98 89.4954 1946.98 94.1258C1946.98 102.33 1941.63 109.042 1935.04 109.042H1906.63V79.1365H1932.36C1934.5 79.1365 1936.22 76.9715 1936.22 74.2886C1936.22 71.6057 1934.5 69.4407 1932.36 69.4407H1914.71M1938.9 94.1258C1938.9 91.4428 1937.17 89.2778 1935.04 89.2778H1914.71V98.9737H1935.04C1937.17 98.9737 1938.9 96.7362 1938.9 94.1258Z" fill="#1CB5E0"/>
</g>
</svg>
