<svg width="1920" height="109" viewBox="0 0 1920 109" fill="none" xmlns="http://www.w3.org/2000/svg">
<path d="M0.5646 49.7534L-34.5603 49.7534L-34.5404 0L5.80871 7.05486e-06L5.80465 10.1413L-26.4648 10.1413L-26.4686 19.8372L-2.27899 19.8372L-2.28305 29.9784L-26.4727 29.9784L-26.4766 39.6742L5.79282 39.6742" fill="#1CB5E0"/>
<path d="M46.4508 10.0688L26.2474 10.0688C24.0521 10.0688 22.2025 12.3788 22.2014 15.1446L22.1936 34.5363C22.1925 37.3746 24.032 39.6121 26.2355 39.6121L42.4033 39.6121C44.6646 39.6121 46.4481 37.3746 46.4493 34.5363L54.529 34.5363C54.5256 42.9684 49.1172 49.7534 42.3992 49.7534L26.2315 49.7534C19.5135 49.7534 14.1105 42.9684 14.1139 34.5363L14.1216 15.1446C14.125 6.79538 19.5334 9.4517e-07 26.2514 2.11978e-06L54.5346 7.06497e-06" fill="#1CB5E0"/>
<path d="M-22.4684 108.301C-29.1863 108.301 -34.5894 101.516 -34.586 93.1566L-34.5721 58.5479L-26.4924 58.5479L-26.5063 93.1566C-26.5074 95.9121 -24.7257 98.2325 -22.4643 98.2325L-6.36264 98.2325C-4.16733 98.2325 -2.31775 95.9224 -2.31664 93.1566L-2.30278 58.5479L5.77697 58.5479L5.76311 93.1566C5.75977 101.506 0.293535 108.301 -6.36667 108.301L-22.4684 108.301Z" fill="#1CB5E0"/>
<path d="M15.2845 58.5479L41.0175 58.5479C47.5539 58.5479 52.8991 65.3328 52.8958 73.537C52.8947 76.2925 52.2994 79.0583 51.0522 81.5962C53.9066 84.4345 55.6215 88.7542 55.6197 93.3845C55.6164 101.589 50.2657 108.301 43.6716 108.301L15.2646 108.301L15.2765 78.3953L41.0096 78.3953C43.1471 78.3953 44.8728 76.2303 44.8739 73.5474C44.875 70.8645 43.151 68.6995 41.0134 68.6995L23.3602 68.6995M47.5399 93.3845C47.541 90.7016 45.817 88.5366 43.6795 88.5366L23.3522 88.5366L23.3483 98.2325L43.6756 98.2325C45.8131 98.2325 47.5389 95.995 47.5399 93.3845Z" fill="#1CB5E0"/>
<path d="M843.254 49.7544L808.129 49.7544L808.149 0.000976562L848.498 0.000983617L848.494 10.1423L816.224 10.1423L816.22 19.8381L840.41 19.8381L840.406 29.9794L816.216 29.9794L816.212 39.6752L848.482 39.6752" fill="#1CB5E0" fill-opacity="0.6"/>
<path d="M893.11 49.7544L857.985 49.7544L858.005 0.000976562L866.085 0.000977975L866.069 39.6856L898.338 39.6856" fill="#1CB5E0" fill-opacity="0.6"/>
<path d="M942.67 49.7544L907.545 49.7544L907.565 0.000976562L947.914 0.000983617L947.91 10.1423L915.64 10.1423L915.636 19.8381L939.826 19.8381L939.822 29.9794L915.632 29.9794L915.628 39.6752L947.898 39.6752" fill="#1CB5E0" fill-opacity="0.6"/>
<path d="M988.556 10.0698L968.352 10.0698C966.157 10.0698 964.308 12.3798 964.306 15.1456L964.299 34.5373C964.298 37.3756 966.137 39.6131 968.341 39.6131L984.508 39.6131C986.77 39.6131 988.553 37.3756 988.554 34.5373L996.634 34.5373C996.631 42.9694 991.222 49.7544 984.504 49.7544L968.337 49.7544C961.619 49.7544 956.216 42.9694 956.219 34.5373L956.227 15.1456C956.23 6.79635 961.639 0.000977508 968.357 0.000978682L996.64 0.000983627" fill="#1CB5E0" fill-opacity="0.6"/>
<path d="M841.356 68.7108L821.153 68.5554C818.957 68.5346 817.099 70.8343 817.082 73.6001L816.975 92.9918C816.957 95.8301 818.789 98.078 820.992 98.0987L837.16 98.223C839.421 98.2437 841.213 96.0166 841.231 93.1783L849.31 93.2404C849.266 101.673 843.824 108.416 837.106 108.364L820.939 108.24C814.221 108.188 808.851 101.362 808.895 92.9297L809.002 73.5379C809.047 65.1887 814.488 58.4348 821.206 58.4866L849.489 58.7041" fill="#1CB5E0" fill-opacity="0.6"/>
<path d="M893.97 108.302L858.845 108.302L858.865 58.5488L866.945 58.5488L866.929 98.2334L899.198 98.2334" fill="#1CB5E0" fill-opacity="0.6"/>
<path d="M919.637 108.302C912.919 108.302 907.516 101.517 907.519 93.1576L907.533 58.5488L915.613 58.5488L915.599 93.1576C915.598 95.913 917.379 98.2334 919.641 98.2334L935.742 98.2334C937.938 98.2334 939.787 95.9234 939.788 93.1576L939.802 58.5488L947.882 58.5488L947.868 93.1576C947.865 101.507 942.399 108.302 935.738 108.302L919.637 108.302Z" fill="#1CB5E0" fill-opacity="0.6"/>
<path d="M957.39 58.5488L983.123 58.5488C989.659 58.5488 995.004 65.3338 995.001 73.538C995 76.2934 994.404 79.0593 993.157 81.5972C996.012 84.4355 997.727 88.7551 997.725 93.3855C997.721 101.59 992.371 108.302 985.777 108.302L957.37 108.302L957.382 78.3963L983.115 78.3963C985.252 78.3963 986.978 76.2313 986.979 73.5484C986.98 70.8654 985.256 68.7005 983.118 68.7005L965.465 68.7005M989.645 93.3855C989.646 90.7026 987.922 88.5376 985.785 88.5376L965.457 88.5376L965.453 98.2334L985.781 98.2334C987.918 98.2334 989.644 95.9959 989.645 93.3855Z" fill="#1CB5E0" fill-opacity="0.6"/>
<path d="M125.346 49.7544L90.2207 49.7544L90.2407 0.000976562L130.59 0.000983617L130.586 10.1423L98.3163 10.1423L98.3124 19.8381L122.502 19.8381L122.498 29.9794L98.3084 29.9794L98.3045 39.6752L130.574 39.6752" fill="#1CB5E0" fill-opacity="0.9"/>
<path d="M175.202 49.7544L140.077 49.7544L140.097 0.000976562L148.177 0.000977975L148.161 39.6856L180.43 39.6856" fill="#1CB5E0" fill-opacity="0.9"/>
<path d="M224.762 49.7544L189.637 49.7544L189.657 0.000976562L230.006 0.000983617L230.002 10.1423L197.732 10.1423L197.729 19.8381L221.918 19.8381L221.914 29.9794L197.724 29.9794L197.721 39.6752L229.99 39.6752" fill="#1CB5E0" fill-opacity="0.9"/>
<path d="M270.648 10.0698L250.445 10.0698C248.249 10.0698 246.4 12.3798 246.399 15.1456L246.391 34.5373C246.39 37.3756 248.229 39.6131 250.433 39.6131L266.601 39.6131C268.862 39.6131 270.645 37.3756 270.647 34.5373L278.726 34.5373C278.723 42.9694 273.314 49.7544 266.596 49.7544L250.429 49.7544C243.711 49.7544 238.308 42.9694 238.311 34.5373L238.319 15.1456C238.322 6.79635 243.731 0.000977508 250.449 0.000978682L278.732 0.000983627" fill="#1CB5E0" fill-opacity="0.9"/>
<path d="M123.448 68.7108L103.245 68.5554C101.05 68.5346 99.1917 70.8343 99.174 73.6001L99.0672 92.9918C99.0496 95.8301 100.881 98.078 103.084 98.0987L119.252 98.223C121.513 98.2437 123.305 96.0166 123.323 93.1783L131.403 93.2404C131.358 101.673 125.916 108.416 119.198 108.364L103.031 108.24C96.3129 108.188 90.9429 101.362 90.9875 92.9297L91.0943 73.5379C91.1389 65.1887 96.5804 58.4348 103.298 58.4866L131.581 58.7041" fill="#1CB5E0" fill-opacity="0.9"/>
<path d="M176.062 108.302L140.937 108.302L140.957 58.5488L149.037 58.5488L149.021 98.2334L181.29 98.2334" fill="#1CB5E0" fill-opacity="0.9"/>
<path d="M201.729 108.302C195.011 108.302 189.608 101.517 189.611 93.1576L189.625 58.5488L197.705 58.5488L197.691 93.1576C197.69 95.913 199.472 98.2334 201.733 98.2334L217.835 98.2334C220.03 98.2334 221.879 95.9234 221.881 93.1576L221.894 58.5488L229.974 58.5488L229.96 93.1576C229.957 101.507 224.491 108.302 217.831 108.302L201.729 108.302Z" fill="#1CB5E0" fill-opacity="0.9"/>
<path d="M239.482 58.5488L265.215 58.5488C271.751 58.5488 277.096 65.3338 277.093 73.538C277.092 76.2934 276.497 79.0593 275.249 81.5972C278.104 84.4355 279.819 88.7551 279.817 93.3855C279.814 101.59 274.463 108.302 267.869 108.302L239.462 108.302L239.474 78.3963L265.207 78.3963C267.344 78.3963 269.07 76.2313 269.071 73.5484C269.072 70.8654 267.348 68.7005 265.211 68.7005L247.557 68.7005M271.737 93.3855C271.738 90.7026 270.014 88.5376 267.877 88.5376L247.549 88.5376L247.546 98.2334L267.873 98.2334C270.01 98.2334 271.736 95.9959 271.737 93.3855Z" fill="#1CB5E0" fill-opacity="0.9"/>
<path d="M1067.45 49.7554L1032.33 49.7554L1032.35 0.00195312L1072.69 0.00196018L1072.69 10.1433L1040.42 10.1433L1040.42 19.8391L1064.61 19.8391L1064.6 29.9804L1040.41 29.9804L1040.41 39.6762L1072.68 39.6762" fill="#1CB5E0" fill-opacity="0.5"/>
<path d="M1117.31 49.7554L1082.18 49.7554L1082.2 0.00195312L1090.28 0.00195454L1090.27 39.6866L1122.54 39.6866" fill="#1CB5E0" fill-opacity="0.5"/>
<path d="M1166.87 49.7554L1131.74 49.7554L1131.76 0.00195312L1172.11 0.00196018L1172.11 10.1433L1139.84 10.1433L1139.83 19.8391L1164.02 19.8391L1164.02 29.9804L1139.83 29.9804L1139.83 39.6762L1172.09 39.6762" fill="#1CB5E0" fill-opacity="0.5"/>
<path d="M1212.75 10.0708L1192.55 10.0708C1190.35 10.0708 1188.5 12.3807 1188.5 15.1465L1188.5 34.5383C1188.49 37.3766 1190.33 39.614 1192.54 39.614L1208.71 39.614C1210.97 39.614 1212.75 37.3766 1212.75 34.5383L1220.83 34.5383C1220.83 42.9703 1215.42 49.7554 1208.7 49.7554L1192.53 49.7554C1185.82 49.7554 1180.41 42.9703 1180.42 34.5383L1180.42 15.1465C1180.43 6.79733 1185.84 0.00195407 1192.55 0.00195524L1220.84 0.00196019" fill="#1CB5E0" fill-opacity="0.5"/>
<path d="M1065.55 68.7117L1045.35 68.5563C1043.15 68.5356 1041.3 70.8353 1041.28 73.6011L1041.17 92.9928C1041.15 95.8311 1042.99 98.079 1045.19 98.0997L1061.36 98.224C1063.62 98.2447 1065.41 96.0176 1065.43 93.1793L1073.51 93.2414C1073.46 101.673 1068.02 108.417 1061.3 108.365L1045.14 108.241C1038.42 108.189 1033.05 101.363 1033.09 92.9306L1033.2 73.5389C1033.24 65.1897 1038.69 58.4358 1045.4 58.4876L1073.69 58.7051" fill="#1CB5E0" fill-opacity="0.5"/>
<path d="M1118.17 108.303L1083.04 108.303L1083.06 58.5498L1091.14 58.5498L1091.13 98.2344L1123.39 98.2344" fill="#1CB5E0" fill-opacity="0.5"/>
<path d="M1143.83 108.303C1137.12 108.303 1131.71 101.518 1131.72 93.1586L1131.73 58.5498L1139.81 58.5498L1139.8 93.1586C1139.79 95.914 1141.58 98.2344 1143.84 98.2344L1159.94 98.2344C1162.13 98.2344 1163.98 95.9244 1163.99 93.1586L1164 58.5498L1172.08 58.5498L1172.07 93.1586C1172.06 101.508 1166.6 108.303 1159.94 108.303L1143.83 108.303Z" fill="#1CB5E0" fill-opacity="0.5"/>
<path d="M1181.59 58.5498L1207.32 58.5498C1213.86 58.5498 1219.2 65.3348 1219.2 73.539C1219.2 76.2944 1218.6 79.0603 1217.35 81.5982C1220.21 84.4365 1221.92 88.7561 1221.92 93.3865C1221.92 101.591 1216.57 108.303 1209.97 108.303L1181.57 108.303L1181.58 78.3973L1207.31 78.3973C1209.45 78.3973 1211.17 76.2323 1211.18 73.5493C1211.18 70.8664 1209.45 68.7014 1207.32 68.7014L1189.66 68.7014M1213.84 93.3865C1213.84 90.7036 1212.12 88.5386 1209.98 88.5386L1189.65 88.5386L1189.65 98.2344L1209.98 98.2344C1212.12 98.2344 1213.84 95.9969 1213.84 93.3865Z" fill="#1CB5E0" fill-opacity="0.5"/>
<path d="M592.821 49.7534L557.696 49.7534L557.716 0L598.065 7.05486e-06L598.061 10.1413L565.791 10.1413L565.787 19.8372L589.977 19.8372L589.973 29.9784L565.783 29.9784L565.779 39.6742L598.049 39.6742" fill="#1CB5E0" fill-opacity="0.7"/>
<path d="M642.677 49.7534L607.552 49.7534L607.572 0L615.652 1.4127e-06L615.636 39.6846L647.905 39.6846" fill="#1CB5E0" fill-opacity="0.7"/>
<path d="M692.237 49.7534L657.112 49.7534L657.132 0L697.481 7.05486e-06L697.477 10.1413L665.207 10.1413L665.203 19.8372L689.393 19.8372L689.389 29.9784L665.199 29.9784L665.195 39.6742L697.465 39.6742" fill="#1CB5E0" fill-opacity="0.7"/>
<path d="M738.123 10.0688L717.919 10.0688C715.724 10.0688 713.875 12.3788 713.873 15.1446L713.866 34.5363C713.865 37.3746 715.704 39.6121 717.908 39.6121L734.075 39.6121C736.337 39.6121 738.12 37.3746 738.121 34.5363L746.201 34.5363C746.198 42.9684 740.789 49.7534 734.071 49.7534L717.904 49.7534C711.186 49.7534 705.783 42.9684 705.786 34.5363L705.794 15.1446C705.797 6.79538 711.206 9.4517e-07 717.924 2.11978e-06L746.207 7.06497e-06" fill="#1CB5E0" fill-opacity="0.7"/>
<path d="M590.923 68.7098L570.72 68.5544C568.524 68.5337 566.667 70.8333 566.649 73.5991L566.542 92.9908C566.524 95.8292 568.356 98.077 570.559 98.0977L586.727 98.222C588.988 98.2428 590.78 96.0156 590.798 93.1773L598.877 93.2395C598.833 101.672 593.391 108.415 586.673 108.363L570.506 108.239C563.788 108.187 558.418 101.361 558.462 92.9287L558.569 73.537C558.614 65.1878 564.055 58.4339 570.773 58.4856L599.056 58.7031" fill="#1CB5E0" fill-opacity="0.7"/>
<path d="M643.537 108.301L608.412 108.301L608.432 58.5479L616.512 58.5479L616.496 98.2325L648.765 98.2325" fill="#1CB5E0" fill-opacity="0.7"/>
<path d="M669.204 108.301C662.486 108.301 657.083 101.516 657.086 93.1566L657.1 58.5479L665.18 58.5479L665.166 93.1566C665.165 95.9121 666.946 98.2325 669.208 98.2325L685.309 98.2325C687.505 98.2325 689.354 95.9224 689.355 93.1566L689.369 58.5479L697.449 58.5479L697.435 93.1566C697.432 101.506 691.966 108.301 685.305 108.301L669.204 108.301Z" fill="#1CB5E0" fill-opacity="0.7"/>
<path d="M706.957 58.5479L732.69 58.5479C739.226 58.5479 744.571 65.3328 744.568 73.537C744.567 76.2925 743.971 79.0583 742.724 81.5962C745.579 84.4345 747.294 88.7542 747.292 93.3845C747.288 101.589 741.938 108.301 735.344 108.301L706.937 108.301L706.949 78.3953L732.682 78.3953C734.819 78.3953 736.545 76.2303 736.546 73.5474C736.547 70.8645 734.823 68.6995 732.685 68.6995L715.032 68.6995M739.212 93.3845C739.213 90.7016 737.489 88.5366 735.352 88.5366L715.024 88.5366L715.02 98.2325L735.348 98.2325C737.485 98.2325 739.211 95.995 739.212 93.3845Z" fill="#1CB5E0" fill-opacity="0.7"/>
<g opacity="0.3">
<path d="M1534.93 49.7544L1499.8 49.7544L1499.82 0.000976562L1540.17 0.000983617L1540.17 10.1423L1507.9 10.1423L1507.89 19.8381L1532.08 19.8381L1532.08 29.9794L1507.89 29.9794L1507.88 39.6752L1540.15 39.6752" fill="#1CB5E0"/>
<path d="M1584.78 49.7544L1549.66 49.7544L1549.68 0.000976562L1557.76 0.000977975L1557.74 39.6856L1590.01 39.6856" fill="#1CB5E0"/>
<path d="M1634.34 49.7544L1599.22 49.7544L1599.24 0.000976562L1639.59 0.000983617L1639.58 10.1423L1607.31 10.1423L1607.31 19.8381L1631.5 19.8381L1631.49 29.9794L1607.3 29.9794L1607.3 39.6752L1639.57 39.6752" fill="#1CB5E0"/>
<path d="M1680.23 10.0698L1660.02 10.0698C1657.83 10.0698 1655.98 12.3798 1655.98 15.1456L1655.97 34.5373C1655.97 37.3756 1657.81 39.6131 1660.01 39.6131L1676.18 39.6131C1678.44 39.6131 1680.23 37.3756 1680.23 34.5373L1688.31 34.5373C1688.3 42.9694 1682.89 49.7544 1676.18 49.7544L1660.01 49.7544C1653.29 49.7544 1647.89 42.9694 1647.89 34.5373L1647.9 15.1456C1647.9 6.79635 1653.31 0.000977508 1660.03 0.000978682L1688.31 0.000983627" fill="#1CB5E0"/>
<path d="M1533.03 68.7108L1512.82 68.5554C1510.63 68.5346 1508.77 70.8343 1508.75 73.6001L1508.65 92.9918C1508.63 95.8301 1510.46 98.078 1512.66 98.0987L1528.83 98.223C1531.09 98.2437 1532.89 96.0166 1532.9 93.1783L1540.98 93.2404C1540.94 101.673 1535.5 108.416 1528.78 108.364L1512.61 108.24C1505.89 108.188 1500.52 101.362 1500.57 92.9297L1500.67 73.5379C1500.72 65.1887 1506.16 58.4348 1512.88 58.4866L1541.16 58.7041" fill="#1CB5E0"/>
<path d="M1585.64 108.302L1550.52 108.302L1550.54 58.5488L1558.62 58.5488L1558.6 98.2334L1590.87 98.2334" fill="#1CB5E0"/>
<path d="M1611.31 108.302C1604.59 108.302 1599.19 101.517 1599.19 93.1576L1599.21 58.5488L1607.28 58.5488L1607.27 93.1576C1607.27 95.913 1609.05 98.2334 1611.31 98.2334L1627.41 98.2334C1629.61 98.2334 1631.46 95.9234 1631.46 93.1576L1631.47 58.5488L1639.55 58.5488L1639.54 93.1576C1639.54 101.507 1634.07 108.302 1627.41 108.302L1611.31 108.302Z" fill="#1CB5E0"/>
<path d="M1649.06 58.5488L1674.79 58.5488C1681.33 58.5488 1686.68 65.3338 1686.67 73.538C1686.67 76.2934 1686.08 79.0593 1684.83 81.5972C1687.68 84.4355 1689.4 88.7551 1689.4 93.3855C1689.39 101.59 1684.04 108.302 1677.45 108.302L1649.04 108.302L1649.05 78.3963L1674.79 78.3963C1676.92 78.3963 1678.65 76.2313 1678.65 73.5484C1678.65 70.8654 1676.93 68.7005 1674.79 68.7005L1657.14 68.7005M1681.32 93.3855C1681.32 90.7026 1679.59 88.5376 1677.46 88.5376L1657.13 88.5376L1657.13 98.2334L1677.45 98.2334C1679.59 98.2334 1681.32 95.9959 1681.32 93.3855Z" fill="#1CB5E0"/>
</g>
<path d="M361.468 49.7544L326.343 49.7544L326.363 0.000976562L366.712 0.000983617L366.708 10.1423L334.439 10.1423L334.435 19.8381L358.625 19.8381L358.62 29.9794L334.431 29.9794L334.427 39.6752L366.696 39.6752" fill="#1CB5E0" fill-opacity="0.8"/>
<path d="M411.325 49.7544L376.2 49.7544L376.22 0.000976562L384.299 0.000977975L384.284 39.6856L416.553 39.6856" fill="#1CB5E0" fill-opacity="0.8"/>
<path d="M460.884 49.7544L425.759 49.7544L425.779 0.000976562L466.128 0.000983617L466.124 10.1423L433.855 10.1423L433.851 19.8381L458.041 19.8381L458.037 29.9794L433.847 29.9794L433.843 39.6752L466.112 39.6752" fill="#1CB5E0" fill-opacity="0.8"/>
<path d="M506.77 10.0698L486.567 10.0698C484.372 10.0698 482.522 12.3798 482.521 15.1456L482.513 34.5373C482.512 37.3756 484.352 39.6131 486.555 39.6131L502.723 39.6131C504.984 39.6131 506.768 37.3756 506.769 34.5373L514.849 34.5373C514.845 42.9694 509.437 49.7544 502.719 49.7544L486.551 49.7544C479.833 49.7544 474.43 42.9694 474.433 34.5373L474.441 15.1456C474.445 6.79635 479.853 0.000977508 486.571 0.000978682L514.854 0.000983627" fill="#1CB5E0" fill-opacity="0.8"/>
<path d="M359.571 68.7108L339.367 68.5554C337.172 68.5346 335.314 70.8343 335.296 73.6001L335.19 92.9918C335.172 95.8301 337.003 98.078 339.207 98.0987L355.374 98.223C357.636 98.2437 359.428 96.0166 359.445 93.1783L367.525 93.2404C367.48 101.673 362.039 108.416 355.321 108.364L339.153 108.24C332.435 108.188 327.065 101.362 327.11 92.9297L327.217 73.5379C327.261 65.1887 332.703 58.4348 339.421 58.4866L367.704 58.7041" fill="#1CB5E0" fill-opacity="0.8"/>
<path d="M412.184 108.302L377.059 108.302L377.079 58.5488L385.159 58.5488L385.143 98.2334L417.413 98.2334" fill="#1CB5E0" fill-opacity="0.8"/>
<path d="M437.851 108.302C431.133 108.302 425.73 101.517 425.734 93.1576L425.747 58.5488L433.827 58.5488L433.813 93.1576C433.812 95.913 435.594 98.2334 437.855 98.2334L453.957 98.2334C456.152 98.2334 458.002 95.9234 458.003 93.1576L458.017 58.5488L466.097 58.5488L466.083 93.1576C466.079 101.507 460.613 108.302 453.953 108.302L437.851 108.302Z" fill="#1CB5E0" fill-opacity="0.8"/>
<path d="M475.604 58.5488L501.337 58.5488C507.873 58.5488 513.219 65.3338 513.215 73.538C513.214 76.2934 512.619 79.0593 511.372 81.5972C514.226 84.4355 515.941 88.7551 515.939 93.3855C515.936 101.59 510.585 108.302 503.991 108.302L475.584 108.302L475.596 78.3963L501.329 78.3963C503.467 78.3963 505.192 76.2313 505.193 73.5484C505.195 70.8654 503.471 68.7005 501.333 68.7005L483.68 68.7005M507.86 93.3855C507.861 90.7026 506.137 88.5376 503.999 88.5376L483.672 88.5376L483.668 98.2334L503.995 98.2334C506.133 98.2334 507.858 95.9959 507.86 93.3855Z" fill="#1CB5E0" fill-opacity="0.8"/>
<g opacity="0.4">
<path d="M1303.57 49.7534L1268.45 49.7534L1268.47 0L1308.82 7.05486e-06L1308.81 10.1413L1276.54 10.1413L1276.54 19.8372L1300.73 19.8372L1300.73 29.9784L1276.54 29.9784L1276.53 39.6742L1308.8 39.6742" fill="#1CB5E0"/>
<path d="M1353.43 49.7534L1318.31 49.7534L1318.32 0L1326.4 1.4127e-06L1326.39 39.6846L1358.66 39.6846" fill="#1CB5E0"/>
<path d="M1402.99 49.7534L1367.86 49.7534L1367.88 0L1408.23 7.05486e-06L1408.23 10.1413L1375.96 10.1413L1375.96 19.8372L1400.15 19.8372L1400.14 29.9784L1375.95 29.9784L1375.95 39.6742L1408.22 39.6742" fill="#1CB5E0"/>
<path d="M1448.88 10.0688L1428.67 10.0688C1426.48 10.0688 1424.63 12.3788 1424.63 15.1446L1424.62 34.5363C1424.62 37.3746 1426.46 39.6121 1428.66 39.6121L1444.83 39.6121C1447.09 39.6121 1448.87 37.3746 1448.87 34.5363L1456.95 34.5363C1456.95 42.9684 1451.54 49.7534 1444.82 49.7534L1428.66 49.7534C1421.94 49.7534 1416.54 42.9684 1416.54 34.5363L1416.55 15.1446C1416.55 6.79538 1421.96 9.4517e-07 1428.68 2.11978e-06L1456.96 7.06497e-06" fill="#1CB5E0"/>
<path d="M1301.68 68.7098L1281.47 68.5544C1279.28 68.5337 1277.42 70.8333 1277.4 73.5991L1277.29 92.9908C1277.28 95.8292 1279.11 98.077 1281.31 98.0977L1297.48 98.222C1299.74 98.2428 1301.53 96.0156 1301.55 93.1773L1309.63 93.2395C1309.59 101.672 1304.14 108.415 1297.43 108.363L1281.26 108.239C1274.54 108.187 1269.17 101.361 1269.22 92.9287L1269.32 73.537C1269.37 65.1878 1274.81 58.4339 1281.53 58.4856L1309.81 58.7031" fill="#1CB5E0"/>
<path d="M1354.29 108.301L1319.16 108.301L1319.18 58.5479L1327.26 58.5479L1327.25 98.2325L1359.52 98.2325" fill="#1CB5E0"/>
<path d="M1379.96 108.301C1373.24 108.301 1367.84 101.516 1367.84 93.1566L1367.85 58.5479L1375.93 58.5479L1375.92 93.1566C1375.92 95.9121 1377.7 98.2325 1379.96 98.2325L1396.06 98.2325C1398.26 98.2325 1400.11 95.9224 1400.11 93.1566L1400.12 58.5479L1408.2 58.5479L1408.19 93.1566C1408.18 101.506 1402.72 108.301 1396.06 108.301L1379.96 108.301Z" fill="#1CB5E0"/>
<path d="M1417.71 58.5479L1443.44 58.5479C1449.98 58.5479 1455.32 65.3328 1455.32 73.537C1455.32 76.2925 1454.72 79.0583 1453.48 81.5962C1456.33 84.4345 1458.05 88.7542 1458.04 93.3845C1458.04 101.589 1452.69 108.301 1446.1 108.301L1417.69 108.301L1417.7 78.3953L1443.43 78.3953C1445.57 78.3953 1447.3 76.2303 1447.3 73.5474C1447.3 70.8645 1445.58 68.6995 1443.44 68.6995L1425.79 68.6995M1449.96 93.3845C1449.97 90.7016 1448.24 88.5366 1446.1 88.5366L1425.78 88.5366L1425.77 98.2325L1446.1 98.2325C1448.24 98.2325 1449.96 95.995 1449.96 93.3845Z" fill="#1CB5E0"/>
</g>
<g opacity="0.2">
<path d="M1792.51 49.7554L1757.39 49.7554L1757.41 0.00195312L1797.76 0.00196018L1797.75 10.1433L1765.48 10.1433L1765.48 19.8391L1789.67 19.8391L1789.67 29.9804L1765.48 29.9804L1765.47 39.6762L1797.74 39.6762" fill="#1CB5E0"/>
<path d="M1842.37 49.7554L1807.25 49.7554L1807.27 0.00195312L1815.35 0.00195454L1815.33 39.6866L1847.6 39.6866" fill="#1CB5E0"/>
<path d="M1891.93 49.7554L1856.81 49.7554L1856.82 0.00195312L1897.17 0.00196018L1897.17 10.1433L1864.9 10.1433L1864.9 19.8391L1889.09 19.8391L1889.08 29.9804L1864.89 29.9804L1864.89 39.6762L1897.16 39.6762" fill="#1CB5E0"/>
<path d="M1937.82 10.0708L1917.61 10.0708C1915.42 10.0708 1913.57 12.3807 1913.57 15.1465L1913.56 34.5383C1913.56 37.3766 1915.4 39.614 1917.6 39.614L1933.77 39.614C1936.03 39.614 1937.81 37.3766 1937.81 34.5383L1945.89 34.5383C1945.89 42.9703 1940.48 49.7554 1933.76 49.7554L1917.6 49.7554C1910.88 49.7554 1905.48 42.9703 1905.48 34.5383L1905.49 15.1465C1905.49 6.79733 1910.9 0.00195407 1917.62 0.00195524L1945.9 0.00196019" fill="#1CB5E0"/>
<path d="M1790.62 68.7117L1770.41 68.5563C1768.22 68.5356 1766.36 70.8353 1766.34 73.6011L1766.24 92.9928C1766.22 95.8311 1768.05 98.079 1770.25 98.0997L1786.42 98.224C1788.68 98.2447 1790.47 96.0176 1790.49 93.1793L1798.57 93.2414C1798.53 101.673 1793.08 108.417 1786.37 108.365L1770.2 108.241C1763.48 108.189 1758.11 101.363 1758.16 92.9306L1758.26 73.5389C1758.31 65.1897 1763.75 58.4358 1770.47 58.4876L1798.75 58.7051" fill="#1CB5E0"/>
<path d="M1843.23 108.303L1808.11 108.303L1808.13 58.5498L1816.2 58.5498L1816.19 98.2344L1848.46 98.2344" fill="#1CB5E0"/>
<path d="M1868.9 108.303C1862.18 108.303 1856.78 101.518 1856.78 93.1586L1856.79 58.5498L1864.87 58.5498L1864.86 93.1586C1864.86 95.914 1866.64 98.2344 1868.9 98.2344L1885 98.2344C1887.2 98.2344 1889.05 95.9244 1889.05 93.1586L1889.06 58.5498L1897.14 58.5498L1897.13 93.1586C1897.13 101.508 1891.66 108.303 1885 108.303L1868.9 108.303Z" fill="#1CB5E0"/>
<path d="M1906.65 58.5498L1932.38 58.5498C1938.92 58.5498 1944.26 65.3348 1944.26 73.539C1944.26 76.2944 1943.66 79.0603 1942.42 81.5982C1945.27 84.4365 1946.99 88.7561 1946.99 93.3865C1946.98 101.591 1941.63 108.303 1935.04 108.303L1906.63 108.303L1906.64 78.3973L1932.37 78.3973C1934.51 78.3973 1936.24 76.2323 1936.24 73.5493C1936.24 70.8664 1934.52 68.7014 1932.38 68.7014L1914.73 68.7014M1938.91 93.3865C1938.91 90.7036 1937.18 88.5386 1935.04 88.5386L1914.72 88.5386L1914.71 98.2344L1935.04 98.2344C1937.18 98.2344 1938.9 95.9969 1938.91 93.3865Z" fill="#1CB5E0"/>
</g>
</svg>
